<svg width="128" height="130" viewBox="0 0 128 130" fill="none" xmlns="http://www.w3.org/2000/svg">
    <path id="halo" d="M44.5 13.5C39.5 15.5 36 6.99996 30 9.99998C24 13 29.4348 19.7782 25.5 24.5C21.5652 29.2217 14.25 22.4999 11.5 28C8.00002 34.9999 13.6 37 12.5 42.5C11.6 47 1.50001 46.5 1.50002 53C1.50003 61.9999 8.00002 59.5 8.00002 65.5C8.00002 70 0.346241 70.0001 1.50002 77.5C2.96149 87 9.07153 80.4999 12.5 88.5C14.5 93.1667 8.11535 96 11.5 101.5C14.8846 107 20.5799 101.652 24 105.5C28.4444 110.5 21 114.385 27 119C32.2 123 37 115.464 42.5 119C47.1666 122 43 127.5 50.5 129C57 130.3 57.5 123 64 123C69.5 123 69 130.4 76 129C82 127.8 79.5278 121.736 84 119.5C89 117 93 124.3 98.5 121C104 117.7 99 111.5 103.5 107.5C108 103.5 113.1 110 117 103.5C120.9 97 112.5 94 115 89.5C118.77 82.7147 125.545 88.5 127 80.4999C128.454 72.4999 120 72.8523 120 67C120 60.9999 127 61.9999 127 55.9999C127 48.9999 118.176 49.2347 117 45.9999C114.273 38.5 122 37.5 118.5 31C115 24.5 110.5 32 105 26.5C99.5 21 106.5 15.8635 100.5 11.4999C95 7.49995 91 15.5455 86.5 13.5C81 10.9999 85.5 4.20002 77 2.5C68.5 0.799978 70.5 8.9166 65.5 8.49994C60.5 8.08327 60.5 -0.681815 52.5 1.49998C44.5 3.68177 49.5 11.5 44.5 13.5Z" stroke="black" />
</svg>