<svg xmlns="http://www.w3.org/2000/svg" viewBox="0 0 116.89 146.32"><defs><style>.cls-1{fill:#fff;}.cls-2{fill:#f5f6f6;}.cls-3{fill:#cdccca;stroke:#cdccca;stroke-miterlimit:10;stroke-width:3px;}</style></defs><g id="Layer_2" data-name="Layer 2"><g id="Layer_1-2" data-name="Layer 1"><polygon class="cls-1" points="0 146.32 116.16 146.28 116.89 21.55 95.34 0.15 0.07 0 0 146.32"/><path class="cls-2" d="M95.05.65V21.37a.09.09,0,0,0,.09.09l21,.22a.08.08,0,0,0,.06-.15L95.21.58A.09.09,0,0,0,95.05.65Z"/><line class="cls-3" x1="13.44" y1="27.4" x2="102.62" y2="27.78"/><line class="cls-3" x1="13.34" y1="35.08" x2="102.52" y2="35.47"/><line class="cls-3" x1="14.02" y1="42.6" x2="103.2" y2="42.98"/><line class="cls-3" x1="14.01" y1="49.89" x2="103.19" y2="50.27"/><line class="cls-3" x1="14.09" y1="65.44" x2="103.27" y2="65.82"/><line class="cls-3" x1="14.2" y1="72.78" x2="103.37" y2="73.16"/><line class="cls-3" x1="14.18" y1="80.06" x2="103.35" y2="80.45"/><line class="cls-3" x1="13.85" y1="87.87" x2="103.03" y2="88.25"/><line class="cls-3" x1="14.05" y1="95.54" x2="103.23" y2="95.92"/><line class="cls-3" x1="14.2" y1="102.99" x2="103.37" y2="103.37"/><line class="cls-3" x1="14.17" y1="110.49" x2="103.34" y2="110.87"/><line class="cls-3" x1="14.08" y1="118.03" x2="103.26" y2="118.41"/><line class="cls-3" x1="14.31" y1="125.66" x2="103.49" y2="126.04"/><line class="cls-3" x1="14.05" y1="58.03" x2="103.23" y2="58.41"/><line class="cls-3" x1="14.39" y1="133.12" x2="103.57" y2="133.5"/></g></g></svg>