<svg xmlns="http://www.w3.org/2000/svg" viewBox="0 0 136.74 53.94"><defs><style>.cls-1{fill:#3d924b;}.cls-2{fill:#84c44b;}.cls-3{fill:#fff;}</style></defs><g id="Layer_2" data-name="Layer 2"><g id="Layer_1-2" data-name="Layer 1"><path class="cls-1" d="M10.48,53V37.54L.63,38l-.1,9.12a4.6,4.6,0,0,0,.31,2.14,4.92,4.92,0,0,0,.7,1.22A8.11,8.11,0,0,0,5.18,53,8.12,8.12,0,0,0,10.48,53Z"/><path class="cls-1" d="M126.32,53.46V38.05l9.85.41.1,9.13a4.61,4.61,0,0,1-.31,2.14,4.83,4.83,0,0,1-.7,1.21,7.95,7.95,0,0,1-8.94,2.52Z"/><path class="cls-2" d="M.58,47.81,0,8.85a11.22,11.22,0,0,1,3.33-5.8A11.36,11.36,0,0,1,10.14.15L126.89,0a9.49,9.49,0,0,1,9.85,8.11q-.21,19.94-.4,39.86a11.59,11.59,0,0,0-3.51-2.63,11.73,11.73,0,0,0-5.22-1.16L8.88,43.77A9.36,9.36,0,0,0,3.19,45.2,9,9,0,0,0,.58,47.81Z"/><polygon class="cls-3" points="86.56 6.52 91.72 6.52 81.39 37.9 77.65 37.9 67.08 6.69 72.24 6.69 79.4 30.24 86.56 6.52"/><path class="cls-3" d="M61.92,15.68h5.24A10.59,10.59,0,0,0,55.92,6.19a11.17,11.17,0,0,0-10.73,8.32c-.16,2.21-.26,4.57-.25,7.08,0,3.1.16,6,.41,8.65a9.68,9.68,0,0,0,3.5,6,9.46,9.46,0,0,0,5.41,2A11.16,11.16,0,0,0,67,29.41l-5-.08a5.45,5.45,0,0,1-6.24,4.24,6.31,6.31,0,0,1-3.08-1.25,6.65,6.65,0,0,1-2.42-4.49q-.07-6.16-.16-12.32a6.2,6.2,0,0,1,2-3.08A6.27,6.27,0,0,1,55.76,11a5.57,5.57,0,0,1,4.41,1.25A5.42,5.42,0,0,1,61.92,15.68Z"/></g></g></svg>